# xmcd CD database file
#
# Track frame offsets:
#	150
#	15161
#	30420
#	47030
#	62340
#	78775
#	95364
#	114859
#	134730
#	151013
#	172503
#	187282
#	201496
#	219199
#	237583
#	252631
#
# Disc length: 3583 seconds
#
# Revision: 0
# Processed by: cddbd v1.5.2PL0 Copyright (c) Steve Scherf et al.
# Submitted via: CDex 1.51
#
DISCID=c70dfd10
DTITLE=Nashville Voices - Today's Country
DYEAR=2006
DGENRE=Country
TTITLE0=The Kiss
TTITLE1=My Maria
TTITLE2=That Don't Impress Me Much
TTITLE3=Achy Breaky Heart
TTITLE4=Long Time Gone
TTITLE5=The Dance
TTITLE6=I Swear
TTITLE7=When You Say Nothing At All
TTITLE8=From Here To Eternity
TTITLE9=Live Like You Were Dying
TTITLE10=Bye Bye
TTITLE11=Imagine That
TTITLE12=Man I Fell Like A Woman
TTITLE13=The Best Of Intentions
TTITLE14=Someone Else's Star
TTITLE15=If Tomorrow Never Comes
EXTD=YEAR: 2006
EXTT0=
EXTT1=
EXTT2=
EXTT3=
EXTT4=
EXTT5=
EXTT6=
EXTT7=
EXTT8=
EXTT9=
EXTT10=
EXTT11=
EXTT12=
EXTT13=
EXTT14=
EXTT15=
PLAYORDER=
